<?xml version="1.0" encoding="UTF-8"?>
<svg version="1.1" xmlns="http://www.w3.org/2000/svg" width="32" height="21">
<path d="M0 0 C2.05547653 4.35277383 2.05547653 4.35277383 1.8125 7.1875 C1 9 1 9 -2 11 C-9.06542056 11.56074766 -9.06542056 11.56074766 -12.5 9.5 C-12.995 9.005 -13.49 8.51 -14 8 C-13.45276317 4.62537285 -12.9451 2.91765 -11 0 C-7.345057 -1.62441911 -3.82504827 -0.66202759 0 0 Z M-9 3 C-8 5 -8 5 -8 5 Z M-4 3 C-3 5 -3 5 -3 5 Z " fill="#626C5A" transform="translate(22,4)"/>
<path d="M0 0 C3.625 0.375 3.625 0.375 7 1 C7.33 3.31 7.66 5.62 8 8 C7.34 8 6.68 8 6 8 C6 7.34 6 6.68 6 6 C5.01 6.33 4.02 6.66 3 7 C3 7.66 3 8.32 3 9 C3.66 9.33 4.32 9.66 5 10 C3.68 10.33 2.36 10.66 1 11 C0.20046862 7.71303767 -0.09658936 6.28976808 1 3 C0.01 2.67 -0.98 2.34 -2 2 C-1.34 1.34 -0.68 0.68 0 0 Z " fill="#A89E7D" transform="translate(15,3)"/>
<path d="M0 0 C2.47442129 2.15167069 3.56238367 3.71787754 4 7 C3 8 3 8 0.4375 8.0625 C-0.366875 8.041875 -1.17125 8.02125 -2 8 C-1.47731534 5.23723823 -0.89130413 2.6739124 0 0 Z " fill="#9C9277" transform="translate(10,4)"/>
<path d="M0 0 C1.32 0 2.64 0 4 0 C4 0.66 4 1.32 4 2 C4.66 2 5.32 2 6 2 C6.33 1.34 6.66 0.68 7 0 C6.6875 1.875 6.6875 1.875 6 4 C3 6 3 6 0.8125 5.625 C0.214375 5.41875 -0.38375 5.2125 -1 5 C-0.01 4.34 0.98 3.68 2 3 C1.34 2.01 0.68 1.02 0 0 Z " fill="#576459" transform="translate(17,9)"/>
</svg>
